<svg class="marks" width="240" height="229" viewBox="0 0 240 229" version="1.1" xmlns="http://www.w3.org/2000/svg" xmlns:xlink="http://www.w3.org/1999/xlink"><rect width="240" height="229" fill="white"></rect><g fill="none" stroke-miterlimit="10" transform="translate(35,5)"><g class="mark-group role-frame root" role="graphics-object" aria-roledescription="group mark container"><g transform="translate(0,0)"><path class="background" aria-hidden="true" d="M0,0h200v200h-200Z"></path><g><g class="mark-arc role-mark layer_0_marks" role="graphics-object" aria-roledescription="arc mark container"><path aria-label="IMDB Rating (binned): 6 – 7; Count of Records: 985" role="graphics-symbol" aria-roledescription="arc mark" transform="translate(100,100)" d="M-95.10565162951535,30.901699437494752A100,100,0,0,0,-58.7785252292473,80.90169943749474L0,0Z" fill="#4c78a8" stroke="white"></path><path aria-label="IMDB Rating (binned): 0 – 1; Count of Records: 213" role="graphics-symbol" aria-roledescription="arc mark" transform="translate(100,100)" d="M27.333193241595783,-37.6209130064773A46.50200585161193,46.50200585161193,0,0,0,2.847426631005402e-15,-46.50200585161193L0,0Z" fill="#4c78a8" stroke="white"></path><path aria-label="IMDB Rating (binned): 3 – 4; Count of Records: 100" role="graphics-symbol" aria-roledescription="arc mark" transform="translate(100,100)" d="M18.72839541267562,25.77742484544199A31.862649393858305,31.862649393858305,0,0,0,30.303180332456765,9.846100148512832L0,0Z" fill="#4c78a8" stroke="white"></path><path aria-label="IMDB Rating (binned): 7 – 8; Count of Records: 741" role="graphics-symbol" aria-roledescription="arc mark" transform="translate(100,100)" d="M-82.4892422714437,-26.80237954132009A86.73432215446148,86.73432215446148,0,0,0,-82.48924227144369,26.802379541320107L0,0Z" fill="#4c78a8" stroke="white"></path><path aria-label="IMDB Rating (binned): 5 – 6; Count of Records: 633" role="graphics-symbol" aria-roledescription="arc mark" transform="translate(100,100)" d="M-47.11969005270768,64.85468948675226A80.16480486526675,80.16480486526675,0,0,0,4.908678584126054e-15,80.16480486526675L0,0Z" fill="#4c78a8" stroke="white"></path><path aria-label="IMDB Rating (binned): 8 – 9; Count of Records: 204" role="graphics-symbol" aria-roledescription="arc mark" transform="translate(100,100)" d="M-26.749499084214644,-36.81752692117324A45.50896603799867,45.50896603799867,0,0,0,-43.28159870029347,-14.063043902173902L0,0Z" fill="#4c78a8" stroke="white"></path><path aria-label="IMDB Rating (binned): 2 – 3; Count of Records: 43" role="graphics-symbol" aria-roledescription="arc mark" transform="translate(100,100)" d="M19.87112421209227,6.45651964279937A20.893736462161424,20.893736462161424,0,0,0,19.87112421209227,-6.45651964279937L0,0Z" fill="#4c78a8" stroke="white"></path><path aria-label="IMDB Rating (binned): 4 – 5; Count of Records: 273" role="graphics-symbol" aria-roledescription="arc mark" transform="translate(100,100)" d="M3.2236216535357162e-15,52.64573680803522A52.64573680803522,52.64573680803522,0,0,0,30.94438769183412,42.59129575909119L0,0Z" fill="#4c78a8" stroke="white"></path><path aria-label="IMDB Rating (binned): 9 – 10; Count of Records: 4" role="graphics-symbol" aria-roledescription="arc mark" transform="translate(100,100)" d="M-1.170614747776288e-15,-6.372529878771662A6.372529878771662,6.372529878771662,0,0,0,-3.7456790825351254,-5.1554849690883975L0,0Z" fill="#4c78a8" stroke="white"></path><path aria-label="IMDB Rating (binned): 1 – 2; Count of Records: 5" role="graphics-symbol" aria-roledescription="arc mark" transform="translate(100,100)" d="M6.775997115780801,-2.201654924534547A7.124704998790965,7.124704998790965,0,0,0,4.187796525223792,-5.76400742393003L0,0Z" fill="#4c78a8" stroke="white"></path></g><g class="mark-text role-mark layer_1_marks" role="graphics-object" aria-roledescription="text mark container"><text aria-label="IMDB Rating (binned): 6 – 7; Count of Records: 985" role="graphics-symbol" aria-roledescription="text mark" text-anchor="end" transform="translate(6.963045646881056,167.5953040136344) rotate(324) translate(0,3)" font-family="sans-serif" font-size="11px" fill="black">6 – 7</text><text aria-label="IMDB Rating (binned): 0 – 1; Count of Records: 213" role="graphics-symbol" aria-roledescription="text mark" text-anchor="end" transform="translate(119.00516499629555,41.50811656960181) rotate(108) translate(0,3)" font-family="sans-serif" font-size="11px" fill="black">0 – 1</text><text aria-label="IMDB Rating (binned): 3 – 4; Count of Records: 100" role="graphics-symbol" aria-roledescription="text mark" text-anchor="end" transform="translate(137.91267976106622,127.54517419706272) rotate(216) translate(0,3)" font-family="sans-serif" font-size="11px" fill="black">3 – 4</text><text aria-label="IMDB Rating (binned): 7 – 8; Count of Records: 741" role="graphics-symbol" aria-roledescription="text mark" text-anchor="end" transform="translate(-1.7343221544614806,100.00000000000001) rotate(360) translate(0,3)" font-family="sans-serif" font-size="11px" fill="black">7 – 8</text><text aria-label="IMDB Rating (binned): 5 – 6; Count of Records: 633" role="graphics-symbol" aria-roledescription="text mark" text-anchor="end" transform="translate(70.59245803025686,190.50710778906864) rotate(288) translate(0,3)" font-family="sans-serif" font-size="11px" fill="black">5 – 6</text><text aria-label="IMDB Rating (binned): 8 – 9; Count of Records: 204" role="graphics-symbol" aria-roledescription="text mark" text-anchor="end" transform="translate(51.047218163202544,64.43372213139827) rotate(396) translate(0,3)" font-family="sans-serif" font-size="11px" fill="black">8 – 9</text><text aria-label="IMDB Rating (binned): 2 – 3; Count of Records: 43" role="graphics-symbol" aria-roledescription="text mark" text-anchor="end" transform="translate(135.89373646216143,100) rotate(180) translate(0,3)" font-family="sans-serif" font-size="11px" fill="black">2 – 3</text><text aria-label="IMDB Rating (binned): 4 – 5; Count of Records: 273" role="graphics-symbol" aria-roledescription="text mark" text-anchor="end" transform="translate(120.9036822706978,164.3349187908688) rotate(252) translate(0,3)" font-family="sans-serif" font-size="11px" fill="black">4 – 5</text><text aria-label="IMDB Rating (binned): 9 – 10; Count of Records: 4" role="graphics-symbol" aria-roledescription="text mark" text-anchor="end" transform="translate(93.39552505467321,79.67351618908134) rotate(432) translate(0,3)" font-family="sans-serif" font-size="11px" fill="black">9 – 10</text><text aria-label="IMDB Rating (binned): 1 – 2; Count of Records: 5" role="graphics-symbol" aria-roledescription="text mark" text-anchor="end" transform="translate(117.89926233955424,86.99542469038911) rotate(144) translate(0,3)" font-family="sans-serif" font-size="11px" fill="black">1 – 2</text></g></g><path class="foreground" aria-hidden="true" d="" display="none"></path></g></g></g></svg>