<svg class="marks" width="376" height="247" viewBox="0 0 376 247" version="1.1" xmlns="http://www.w3.org/2000/svg" xmlns:xlink="http://www.w3.org/1999/xlink"><rect width="376" height="247" fill="white"></rect><g fill="none" stroke-miterlimit="10" transform="translate(45,10)"><g class="mark-group role-frame root" role="graphics-object" aria-roledescription="group mark container"><g transform="translate(0,0)"><path class="background" aria-hidden="true" d="M0.5,0.5h200v200h-200Z" stroke="#ddd"></path><g><g class="mark-group role-axis" role="graphics-symbol" aria-roledescription="axis" aria-label="X-axis titled 'IMDB Rating (binned)' for a linear scale with values from 0 to 10"><g transform="translate(0.5,200.5)"><path class="background" aria-hidden="true" d="M0,0h0v0h0Z" pointer-events="none"></path><g><g class="mark-rule role-axis-tick" pointer-events="none"><line transform="translate(0,0)" x2="0" y2="5" stroke="#888" stroke-width="1" opacity="1"></line><line transform="translate(40,0)" x2="0" y2="5" stroke="#888" stroke-width="1" opacity="1"></line><line transform="translate(80,0)" x2="0" y2="5" stroke="#888" stroke-width="1" opacity="1"></line><line transform="translate(120,0)" x2="0" y2="5" stroke="#888" stroke-width="1" opacity="1"></line><line transform="translate(160,0)" x2="0" y2="5" stroke="#888" stroke-width="1" opacity="1"></line><line transform="translate(200,0)" x2="0" y2="5" stroke="#888" stroke-width="1" opacity="1"></line></g><g class="mark-text role-axis-label" pointer-events="none"><text text-anchor="start" transform="translate(0,15)" font-family="sans-serif" font-size="10px" fill="#000" opacity="1">0.0</text><text text-anchor="middle" transform="translate(40,15)" font-family="sans-serif" font-size="10px" fill="#000" opacity="1">2.0</text><text text-anchor="middle" transform="translate(80,15)" font-family="sans-serif" font-size="10px" fill="#000" opacity="1">4.0</text><text text-anchor="middle" transform="translate(120,15)" font-family="sans-serif" font-size="10px" fill="#000" opacity="1">6.0</text><text text-anchor="middle" transform="translate(160,15)" font-family="sans-serif" font-size="10px" fill="#000" opacity="1">8.0</text><text text-anchor="end" transform="translate(200,15)" font-family="sans-serif" font-size="10px" fill="#000" opacity="1">10.0</text></g><g class="mark-rule role-axis-domain" pointer-events="none"><line transform="translate(0,0)" x2="200" y2="0" stroke="#888" stroke-width="1" opacity="1"></line></g><g class="mark-text role-axis-title" pointer-events="none"><text text-anchor="middle" transform="translate(100,30)" font-family="sans-serif" font-size="11px" font-weight="bold" fill="#000" opacity="1">IMDB Rating (binned)</text></g></g><path class="foreground" aria-hidden="true" d="" pointer-events="none" display="none"></path></g></g><g class="mark-group role-axis" role="graphics-symbol" aria-roledescription="axis" aria-label="Y-axis titled 'Rotten Tomatoes Rating (binned)' for a linear scale with values from 0 to 100"><g transform="translate(0.5,0.5)"><path class="background" aria-hidden="true" d="M0,0h0v0h0Z" pointer-events="none"></path><g><g class="mark-rule role-axis-tick" pointer-events="none"><line transform="translate(0,200)" x2="-5" y2="0" stroke="#888" stroke-width="1" opacity="1"></line><line transform="translate(0,160)" x2="-5" y2="0" stroke="#888" stroke-width="1" opacity="1"></line><line transform="translate(0,120)" x2="-5" y2="0" stroke="#888" stroke-width="1" opacity="1"></line><line transform="translate(0,80)" x2="-5" y2="0" stroke="#888" stroke-width="1" opacity="1"></line><line transform="translate(0,40)" x2="-5" y2="0" stroke="#888" stroke-width="1" opacity="1"></line><line transform="translate(0,0)" x2="-5" y2="0" stroke="#888" stroke-width="1" opacity="1"></line></g><g class="mark-text role-axis-label" pointer-events="none"><text text-anchor="end" transform="translate(-7,203)" font-family="sans-serif" font-size="10px" fill="#000" opacity="1">0</text><text text-anchor="end" transform="translate(-7,163)" font-family="sans-serif" font-size="10px" fill="#000" opacity="1">20</text><text text-anchor="end" transform="translate(-7,123)" font-family="sans-serif" font-size="10px" fill="#000" opacity="1">40</text><text text-anchor="end" transform="translate(-7,83)" font-family="sans-serif" font-size="10px" fill="#000" opacity="1">60</text><text text-anchor="end" transform="translate(-7,42.99999999999999)" font-family="sans-serif" font-size="10px" fill="#000" opacity="1">80</text><text text-anchor="end" transform="translate(-7,3)" font-family="sans-serif" font-size="10px" fill="#000" opacity="1">100</text></g><g class="mark-rule role-axis-domain" pointer-events="none"><line transform="translate(0,200)" x2="0" y2="-200" stroke="#888" stroke-width="1" opacity="1"></line></g><g class="mark-text role-axis-title" pointer-events="none"><text text-anchor="middle" transform="translate(-29,100) rotate(-90) translate(0,-2)" font-family="sans-serif" font-size="11px" font-weight="bold" fill="#000" opacity="1">Rotten Tomatoes Rating (binned)</text></g></g><path class="foreground" aria-hidden="true" d="" pointer-events="none" display="none"></path></g></g><g class="mark-symbol role-mark marks" role="graphics-object" aria-roledescription="symbol mark container"><path aria-label="IMDB Rating (binned): 6 – 8; Rotten Tomatoes Rating (binned): 0 – 20; Count of Records: 452" role="graphics-symbol" aria-roledescription="circle" transform="translate(140,180)" d="M18.937259047174177,0A18.937259047174177,18.937259047174177,0,1,1,-18.937259047174177,0A18.937259047174177,18.937259047174177,0,1,1,18.937259047174177,0" fill="#4c78a8" stroke-width="2"></path><path aria-label="IMDB Rating (binned): 0 – 2; Rotten Tomatoes Rating (binned): 0 – 20; Count of Records: 165" role="graphics-symbol" aria-roledescription="circle" transform="translate(20,180)" d="M11.4416820403334,0A11.4416820403334,11.4416820403334,0,1,1,-11.4416820403334,0A11.4416820403334,11.4416820403334,0,1,1,11.4416820403334,0" fill="#4c78a8" stroke-width="2"></path><path aria-label="IMDB Rating (binned): 2 – 4; Rotten Tomatoes Rating (binned): 60 – 80; Count of Records: 10" role="graphics-symbol" aria-roledescription="circle" transform="translate(60,60.00000000000001)" d="M2.8167474033121844,0A2.8167474033121844,2.8167474033121844,0,1,1,-2.8167474033121844,0A2.8167474033121844,2.8167474033121844,0,1,1,2.8167474033121844,0" fill="#4c78a8" stroke-width="2"></path><path aria-label="IMDB Rating (binned): 2 – 4; Rotten Tomatoes Rating (binned): 0 – 20; Count of Records: 113" role="graphics-symbol" aria-roledescription="circle" transform="translate(60,180)" d="M9.468629523587088,0A9.468629523587088,9.468629523587088,0,1,1,-9.468629523587088,0A9.468629523587088,9.468629523587088,0,1,1,9.468629523587088,0" fill="#4c78a8" stroke-width="2"></path><path aria-label="IMDB Rating (binned): 4 – 6; Rotten Tomatoes Rating (binned): 20 – 40; Count of Records: 263" role="graphics-symbol" aria-roledescription="circle" transform="translate(100,140)" d="M14.445273762235662,0A14.445273762235662,14.445273762235662,0,1,1,-14.445273762235662,0A14.445273762235662,14.445273762235662,0,1,1,14.445273762235662,0" fill="#4c78a8" stroke-width="2"></path><path aria-label="IMDB Rating (binned): 6 – 8; Rotten Tomatoes Rating (binned): 80 – 100; Count of Records: 400" role="graphics-symbol" aria-roledescription="circle" transform="translate(140,19.999999999999996)" d="M17.814674775662827,0A17.814674775662827,17.814674775662827,0,1,1,-17.814674775662827,0A17.814674775662827,17.814674775662827,0,1,1,17.814674775662827,0" fill="#4c78a8" stroke-width="2"></path><path aria-label="IMDB Rating (binned): 8 – 10; Rotten Tomatoes Rating (binned): 80 – 100; Count of Records: 146" role="graphics-symbol" aria-roledescription="circle" transform="translate(180,19.999999999999996)" d="M10.762776715948474,0A10.762776715948474,10.762776715948474,0,1,1,-10.762776715948474,0A10.762776715948474,10.762776715948474,0,1,1,10.762776715948474,0" fill="#4c78a8" stroke-width="2"></path><path aria-label="IMDB Rating (binned): 2 – 4; Rotten Tomatoes Rating (binned): 80 – 100; Count of Records: 6" role="graphics-symbol" aria-roledescription="circle" transform="translate(60,19.999999999999996)" d="M2.1818431567002152,0A2.1818431567002152,2.1818431567002152,0,1,1,-2.1818431567002152,0A2.1818431567002152,2.1818431567002152,0,1,1,2.1818431567002152,0" fill="#4c78a8" stroke-width="2"></path><path aria-label="IMDB Rating (binned): 8 – 10; Rotten Tomatoes Rating (binned): 0 – 20; Count of Records: 43" role="graphics-symbol" aria-roledescription="circle" transform="translate(180,180)" d="M5.840931733592125,0A5.840931733592125,5.840931733592125,0,1,1,-5.840931733592125,0A5.840931733592125,5.840931733592125,0,1,1,5.840931733592125,0" fill="#4c78a8" stroke-width="2"></path><path aria-label="IMDB Rating (binned): 6 – 8; Rotten Tomatoes Rating (binned): 40 – 60; Count of Records: 302" role="graphics-symbol" aria-roledescription="circle" transform="translate(140,100)" d="M15.479302025892226,0A15.479302025892226,15.479302025892226,0,1,1,-15.479302025892226,0A15.479302025892226,15.479302025892226,0,1,1,15.479302025892226,0" fill="#4c78a8" stroke-width="2"></path><path aria-label="IMDB Rating (binned): 0 – 2; Rotten Tomatoes Rating (binned): 80 – 100; Count of Records: 19" role="graphics-symbol" aria-roledescription="circle" transform="translate(20,19.999999999999996)" d="M3.882618352957869,0A3.882618352957869,3.882618352957869,0,1,1,-3.882618352957869,0A3.882618352957869,3.882618352957869,0,1,1,3.882618352957869,0" fill="#4c78a8" stroke-width="2"></path><path aria-label="IMDB Rating (binned): 6 – 8; Rotten Tomatoes Rating (binned): 60 – 80; Count of Records: 420" role="graphics-symbol" aria-roledescription="circle" transform="translate(140,60.00000000000001)" d="M18.254609533779934,0A18.254609533779934,18.254609533779934,0,1,1,-18.254609533779934,0A18.254609533779934,18.254609533779934,0,1,1,18.254609533779934,0" fill="#4c78a8" stroke-width="2"></path><path aria-label="IMDB Rating (binned): 4 – 6; Rotten Tomatoes Rating (binned): 0 – 20; Count of Records: 455" role="graphics-symbol" aria-roledescription="circle" transform="translate(100,180)" d="M19,0A19,19,0,1,1,-19,0A19,19,0,1,1,19,0" fill="#4c78a8" stroke-width="2"></path><path aria-label="IMDB Rating (binned): 0 – 2; Rotten Tomatoes Rating (binned): 20 – 40; Count of Records: 14" role="graphics-symbol" aria-roledescription="circle" transform="translate(20,140)" d="M3.332820473366711,0A3.332820473366711,3.332820473366711,0,1,1,-3.332820473366711,0A3.332820473366711,3.332820473366711,0,1,1,3.332820473366711,0" fill="#4c78a8" stroke-width="2"></path><path aria-label="IMDB Rating (binned): 6 – 8; Rotten Tomatoes Rating (binned): 20 – 40; Count of Records: 152" role="graphics-symbol" aria-roledescription="circle" transform="translate(140,140)" d="M10.981703064543414,0A10.981703064543414,10.981703064543414,0,1,1,-10.981703064543414,0A10.981703064543414,10.981703064543414,0,1,1,10.981703064543414,0" fill="#4c78a8" stroke-width="2"></path><path aria-label="IMDB Rating (binned): 4 – 6; Rotten Tomatoes Rating (binned): 40 – 60; Count of Records: 128" role="graphics-symbol" aria-roledescription="circle" transform="translate(100,100)" d="M10.077501870803298,0A10.077501870803298,10.077501870803298,0,1,1,-10.077501870803298,0A10.077501870803298,10.077501870803298,0,1,1,10.077501870803298,0" fill="#4c78a8" stroke-width="2"></path><path aria-label="IMDB Rating (binned): 4 – 6; Rotten Tomatoes Rating (binned): 60 – 80; Count of Records: 39" role="graphics-symbol" aria-roledescription="circle" transform="translate(100,60.00000000000001)" d="M5.562630415806639,0A5.562630415806639,5.562630415806639,0,1,1,-5.562630415806639,0A5.562630415806639,5.562630415806639,0,1,1,5.562630415806639,0" fill="#4c78a8" stroke-width="2"></path><path aria-label="IMDB Rating (binned): 4 – 6; Rotten Tomatoes Rating (binned): 80 – 100; Count of Records: 21" role="graphics-symbol" aria-roledescription="circle" transform="translate(100,19.999999999999996)" d="M4.0818547820247675,0A4.0818547820247675,4.0818547820247675,0,1,1,-4.0818547820247675,0A4.0818547820247675,4.0818547820247675,0,1,1,4.0818547820247675,0" fill="#4c78a8" stroke-width="2"></path><path aria-label="IMDB Rating (binned): 2 – 4; Rotten Tomatoes Rating (binned): 20 – 40; Count of Records: 14" role="graphics-symbol" aria-roledescription="circle" transform="translate(60,140)" d="M3.332820473366711,0A3.332820473366711,3.332820473366711,0,1,1,-3.332820473366711,0A3.332820473366711,3.332820473366711,0,1,1,3.332820473366711,0" fill="#4c78a8" stroke-width="2"></path><path aria-label="IMDB Rating (binned): 8 – 10; Rotten Tomatoes Rating (binned): 60 – 80; Count of Records: 16" role="graphics-symbol" aria-roledescription="circle" transform="translate(180,60.00000000000001)" d="M3.5629349551325653,0A3.5629349551325653,3.5629349551325653,0,1,1,-3.5629349551325653,0A3.5629349551325653,3.5629349551325653,0,1,1,3.5629349551325653,0" fill="#4c78a8" stroke-width="2"></path><path aria-label="IMDB Rating (binned): 8 – 10; Rotten Tomatoes Rating (binned): 20 – 40; Count of Records: 1" role="graphics-symbol" aria-roledescription="circle" transform="translate(180,140)" d="M0.8907337387831413,0A0.8907337387831413,0.8907337387831413,0,1,1,-0.8907337387831413,0A0.8907337387831413,0.8907337387831413,0,1,1,0.8907337387831413,0" fill="#4c78a8" stroke-width="2"></path><path aria-label="IMDB Rating (binned): 0 – 2; Rotten Tomatoes Rating (binned): 60 – 80; Count of Records: 12" role="graphics-symbol" aria-roledescription="circle" transform="translate(20,60.00000000000001)" d="M3.0855921831763706,0A3.0855921831763706,3.0855921831763706,0,1,1,-3.0855921831763706,0A3.0855921831763706,3.0855921831763706,0,1,1,3.0855921831763706,0" fill="#4c78a8" stroke-width="2"></path><path aria-label="IMDB Rating (binned): 0 – 2; Rotten Tomatoes Rating (binned): 40 – 60; Count of Records: 8" role="graphics-symbol" aria-roledescription="circle" transform="translate(20,100)" d="M2.5193754677008244,0A2.5193754677008244,2.5193754677008244,0,1,1,-2.5193754677008244,0A2.5193754677008244,2.5193754677008244,0,1,1,2.5193754677008244,0" fill="#4c78a8" stroke-width="2"></path><path aria-label="IMDB Rating (binned): 8 – 10; Rotten Tomatoes Rating (binned): 40 – 60; Count of Records: 2" role="graphics-symbol" aria-roledescription="circle" transform="translate(180,100)" d="M1.2596877338504122,0A1.2596877338504122,1.2596877338504122,0,1,1,-1.2596877338504122,0A1.2596877338504122,1.2596877338504122,0,1,1,1.2596877338504122,0" fill="#4c78a8" stroke-width="2"></path></g><g class="mark-group role-legend" role="graphics-symbol" aria-roledescription="legend" aria-label="Symbol legend titled 'Count of Records' for size with values from 0 to 455"><g transform="translate(218,0)"><path class="background" aria-hidden="true" d="M0,0h108v147h-108Z" pointer-events="none"></path><g><g class="mark-group role-legend-entry"><g transform="translate(0,16)"><path class="background" aria-hidden="true" d="M0,0h0v0h0Z" pointer-events="none"></path><g><g class="mark-group role-scope" role="graphics-object" aria-roledescription="group mark container"><g transform="translate(0,0)"><path class="background" aria-hidden="true" d="M0,0h60v20.40733738783141h-60Z" pointer-events="none" opacity="1"></path><g><g class="mark-symbol role-legend-symbol" pointer-events="none"><path transform="translate(19,10)" d="M8.907337387831413,0A8.907337387831413,8.907337387831413,0,1,1,-8.907337387831413,0A8.907337387831413,8.907337387831413,0,1,1,8.907337387831413,0" fill="#4c78a8" stroke-width="1.5" opacity="1"></path></g><g class="mark-text role-legend-label" pointer-events="none"><text text-anchor="start" transform="translate(42,13)" font-family="sans-serif" font-size="10px" fill="#000" opacity="1">100</text></g></g><path class="foreground" aria-hidden="true" d="" pointer-events="none" display="none"></path></g><g transform="translate(0,24)"><path class="background" aria-hidden="true" d="M0,0h60v27.59687733850412h-60Z" pointer-events="none" opacity="1"></path><g><g class="mark-symbol role-legend-symbol" pointer-events="none"><path transform="translate(19,13.5)" d="M12.596877338504122,0A12.596877338504122,12.596877338504122,0,1,1,-12.596877338504122,0A12.596877338504122,12.596877338504122,0,1,1,12.596877338504122,0" fill="#4c78a8" stroke-width="1.5" opacity="1"></path></g><g class="mark-text role-legend-label" pointer-events="none"><text text-anchor="start" transform="translate(42,16.5)" font-family="sans-serif" font-size="10px" fill="#000" opacity="1">200</text></g></g><path class="foreground" aria-hidden="true" d="" pointer-events="none" display="none"></path></g><g transform="translate(0,55)"><path class="background" aria-hidden="true" d="M0,0h60v33.427960915881854h-60Z" pointer-events="none" opacity="1"></path><g><g class="mark-symbol role-legend-symbol" pointer-events="none"><path transform="translate(19,16.5)" d="M15.427960915881853,0A15.427960915881853,15.427960915881853,0,1,1,-15.427960915881853,0A15.427960915881853,15.427960915881853,0,1,1,15.427960915881853,0" fill="#4c78a8" stroke-width="1.5" opacity="1"></path></g><g class="mark-text role-legend-label" pointer-events="none"><text text-anchor="start" transform="translate(42,19.5)" font-family="sans-serif" font-size="10px" fill="#000" opacity="1">300</text></g></g><path class="foreground" aria-hidden="true" d="" pointer-events="none" display="none"></path></g><g transform="translate(0,92)"><path class="background" aria-hidden="true" d="M0,0h60v38.31467477566281h-60Z" pointer-events="none" opacity="1"></path><g><g class="mark-symbol role-legend-symbol" pointer-events="none"><path transform="translate(19,19)" d="M17.814674775662827,0A17.814674775662827,17.814674775662827,0,1,1,-17.814674775662827,0A17.814674775662827,17.814674775662827,0,1,1,17.814674775662827,0" fill="#4c78a8" stroke-width="1.5" opacity="1"></path></g><g class="mark-text role-legend-label" pointer-events="none"><text text-anchor="start" transform="translate(42,22)" font-family="sans-serif" font-size="10px" fill="#000" opacity="1">400</text></g></g><path class="foreground" aria-hidden="true" d="" pointer-events="none" display="none"></path></g></g></g><path class="foreground" aria-hidden="true" d="" pointer-events="none" display="none"></path></g></g><g class="mark-text role-legend-title" pointer-events="none"><text text-anchor="start" transform="translate(0,9)" font-family="sans-serif" font-size="11px" font-weight="bold" fill="#000" opacity="1">Count of Records</text></g></g><path class="foreground" aria-hidden="true" d="" pointer-events="none" display="none"></path></g></g></g><path class="foreground" aria-hidden="true" d="" display="none"></path></g></g></g></svg>