<svg class="marks" width="376" height="247" viewBox="0 0 376 247" version="1.1" xmlns="http://www.w3.org/2000/svg" xmlns:xlink="http://www.w3.org/1999/xlink"><rect width="376" height="247" fill="white"></rect><g fill="none" stroke-miterlimit="10" transform="translate(45,10)"><g class="mark-group role-frame root" role="graphics-object" aria-roledescription="group mark container"><g transform="translate(0,0)"><path class="background" aria-hidden="true" d="M0.5,0.5h200v200h-200Z" stroke="#ddd"></path><g><g class="mark-group role-axis" role="graphics-symbol" aria-roledescription="axis" aria-label="X-axis titled 'IMDB Rating (binned)' for a linear scale with values from 0 to 10"><g transform="translate(0.5,200.5)"><path class="background" aria-hidden="true" d="M0,0h0v0h0Z" pointer-events="none"></path><g><g class="mark-rule role-axis-tick" pointer-events="none"><line transform="translate(0,0)" x2="0" y2="5" stroke="#888" stroke-width="1" opacity="1"></line><line transform="translate(20,0)" x2="0" y2="5" stroke="#888" stroke-width="1" opacity="1"></line><line transform="translate(40,0)" x2="0" y2="5" stroke="#888" stroke-width="1" opacity="1"></line><line transform="translate(60,0)" x2="0" y2="5" stroke="#888" stroke-width="1" opacity="1"></line><line transform="translate(80,0)" x2="0" y2="5" stroke="#888" stroke-width="1" opacity="1"></line><line transform="translate(100,0)" x2="0" y2="5" stroke="#888" stroke-width="1" opacity="1"></line><line transform="translate(120,0)" x2="0" y2="5" stroke="#888" stroke-width="1" opacity="1"></line><line transform="translate(140,0)" x2="0" y2="5" stroke="#888" stroke-width="1" opacity="1"></line><line transform="translate(160,0)" x2="0" y2="5" stroke="#888" stroke-width="1" opacity="1"></line><line transform="translate(180,0)" x2="0" y2="5" stroke="#888" stroke-width="1" opacity="1"></line><line transform="translate(200,0)" x2="0" y2="5" stroke="#888" stroke-width="1" opacity="1"></line></g><g class="mark-text role-axis-label" pointer-events="none"><text text-anchor="start" transform="translate(0,15)" font-family="sans-serif" font-size="10px" fill="#000" opacity="1">0.0</text><text text-anchor="middle" transform="translate(20,15)" font-family="sans-serif" font-size="10px" fill="#000" opacity="0">1.0</text><text text-anchor="middle" transform="translate(40,15)" font-family="sans-serif" font-size="10px" fill="#000" opacity="1">2.0</text><text text-anchor="middle" transform="translate(60,15)" font-family="sans-serif" font-size="10px" fill="#000" opacity="0">3.0</text><text text-anchor="middle" transform="translate(80,15)" font-family="sans-serif" font-size="10px" fill="#000" opacity="1">4.0</text><text text-anchor="middle" transform="translate(100,15)" font-family="sans-serif" font-size="10px" fill="#000" opacity="0">5.0</text><text text-anchor="middle" transform="translate(120,15)" font-family="sans-serif" font-size="10px" fill="#000" opacity="1">6.0</text><text text-anchor="middle" transform="translate(140,15)" font-family="sans-serif" font-size="10px" fill="#000" opacity="0">7.0</text><text text-anchor="middle" transform="translate(160,15)" font-family="sans-serif" font-size="10px" fill="#000" opacity="1">8.0</text><text text-anchor="middle" transform="translate(180,15)" font-family="sans-serif" font-size="10px" fill="#000" opacity="0">9.0</text><text text-anchor="end" transform="translate(200,15)" font-family="sans-serif" font-size="10px" fill="#000" opacity="1">10.0</text></g><g class="mark-rule role-axis-domain" pointer-events="none"><line transform="translate(0,0)" x2="200" y2="0" stroke="#888" stroke-width="1" opacity="1"></line></g><g class="mark-text role-axis-title" pointer-events="none"><text text-anchor="middle" transform="translate(100,30)" font-family="sans-serif" font-size="11px" font-weight="bold" fill="#000" opacity="1">IMDB Rating (binned)</text></g></g><path class="foreground" aria-hidden="true" d="" pointer-events="none" display="none"></path></g></g><g class="mark-group role-axis" role="graphics-symbol" aria-roledescription="axis" aria-label="Y-axis titled 'Rotten Tomatoes Rating (binned)' for a linear scale with values from 0 to 100"><g transform="translate(0.5,0.5)"><path class="background" aria-hidden="true" d="M0,0h0v0h0Z" pointer-events="none"></path><g><g class="mark-rule role-axis-tick" pointer-events="none"><line transform="translate(0,200)" x2="-5" y2="0" stroke="#888" stroke-width="1" opacity="1"></line><line transform="translate(0,180)" x2="-5" y2="0" stroke="#888" stroke-width="1" opacity="1"></line><line transform="translate(0,160)" x2="-5" y2="0" stroke="#888" stroke-width="1" opacity="1"></line><line transform="translate(0,140)" x2="-5" y2="0" stroke="#888" stroke-width="1" opacity="1"></line><line transform="translate(0,120)" x2="-5" y2="0" stroke="#888" stroke-width="1" opacity="1"></line><line transform="translate(0,100)" x2="-5" y2="0" stroke="#888" stroke-width="1" opacity="1"></line><line transform="translate(0,80)" x2="-5" y2="0" stroke="#888" stroke-width="1" opacity="1"></line><line transform="translate(0,60)" x2="-5" y2="0" stroke="#888" stroke-width="1" opacity="1"></line><line transform="translate(0,40)" x2="-5" y2="0" stroke="#888" stroke-width="1" opacity="1"></line><line transform="translate(0,20)" x2="-5" y2="0" stroke="#888" stroke-width="1" opacity="1"></line><line transform="translate(0,0)" x2="-5" y2="0" stroke="#888" stroke-width="1" opacity="1"></line></g><g class="mark-text role-axis-label" pointer-events="none"><text text-anchor="end" transform="translate(-7,203)" font-family="sans-serif" font-size="10px" fill="#000" opacity="1">0</text><text text-anchor="end" transform="translate(-7,183)" font-family="sans-serif" font-size="10px" fill="#000" opacity="1">10</text><text text-anchor="end" transform="translate(-7,163)" font-family="sans-serif" font-size="10px" fill="#000" opacity="1">20</text><text text-anchor="end" transform="translate(-7,143)" font-family="sans-serif" font-size="10px" fill="#000" opacity="1">30</text><text text-anchor="end" transform="translate(-7,123)" font-family="sans-serif" font-size="10px" fill="#000" opacity="1">40</text><text text-anchor="end" transform="translate(-7,103)" font-family="sans-serif" font-size="10px" fill="#000" opacity="1">50</text><text text-anchor="end" transform="translate(-7,83)" font-family="sans-serif" font-size="10px" fill="#000" opacity="1">60</text><text text-anchor="end" transform="translate(-7,63.00000000000001)" font-family="sans-serif" font-size="10px" fill="#000" opacity="1">70</text><text text-anchor="end" transform="translate(-7,42.99999999999999)" font-family="sans-serif" font-size="10px" fill="#000" opacity="1">80</text><text text-anchor="end" transform="translate(-7,22.999999999999996)" font-family="sans-serif" font-size="10px" fill="#000" opacity="1">90</text><text text-anchor="end" transform="translate(-7,3)" font-family="sans-serif" font-size="10px" fill="#000" opacity="1">100</text></g><g class="mark-rule role-axis-domain" pointer-events="none"><line transform="translate(0,200)" x2="0" y2="-200" stroke="#888" stroke-width="1" opacity="1"></line></g><g class="mark-text role-axis-title" pointer-events="none"><text text-anchor="middle" transform="translate(-29,100) rotate(-90) translate(0,-2)" font-family="sans-serif" font-size="11px" font-weight="bold" fill="#000" opacity="1">Rotten Tomatoes Rating (binned)</text></g></g><path class="foreground" aria-hidden="true" d="" pointer-events="none" display="none"></path></g></g><g class="mark-symbol role-mark marks" role="graphics-object" aria-roledescription="symbol mark container"><path aria-label="IMDB Rating (binned): 6 – 7; Rotten Tomatoes Rating (binned): 0 – 10; Count of Records: 229" role="graphics-symbol" aria-roledescription="circle" transform="translate(130,190)" d="M9.5,0A9.5,9.5,0,1,1,-9.5,0A9.5,9.5,0,1,1,9.5,0" fill="#4c78a8" stroke-width="2"></path><path aria-label="IMDB Rating (binned): 0 – 1; Rotten Tomatoes Rating (binned): 10 – 20; Count of Records: 6" role="graphics-symbol" aria-roledescription="circle" transform="translate(10,170)" d="M1.5377349644723237,0A1.5377349644723237,1.5377349644723237,0,1,1,-1.5377349644723237,0A1.5377349644723237,1.5377349644723237,0,1,1,1.5377349644723237,0" fill="#4c78a8" stroke-width="2"></path><path aria-label="IMDB Rating (binned): 3 – 4; Rotten Tomatoes Rating (binned): 60 – 70; Count of Records: 5" role="graphics-symbol" aria-roledescription="circle" transform="translate(70,70)" d="M1.4037535458431614,0A1.4037535458431614,1.4037535458431614,0,1,1,-1.4037535458431614,0A1.4037535458431614,1.4037535458431614,0,1,1,1.4037535458431614,0" fill="#4c78a8" stroke-width="2"></path><path aria-label="IMDB Rating (binned): 0 – 1; Rotten Tomatoes Rating (binned): 0 – 10; Count of Records: 154" role="graphics-symbol" aria-roledescription="circle" transform="translate(10,190)" d="M7.790516012305685,0A7.790516012305685,7.790516012305685,0,1,1,-7.790516012305685,0A7.790516012305685,7.790516012305685,0,1,1,7.790516012305685,0" fill="#4c78a8" stroke-width="2"></path><path aria-label="IMDB Rating (binned): 7 – 8; Rotten Tomatoes Rating (binned): 0 – 10; Count of Records: 192" role="graphics-symbol" aria-roledescription="circle" transform="translate(150,190)" d="M8.698742568368278,0A8.698742568368278,8.698742568368278,0,1,1,-8.698742568368278,0A8.698742568368278,8.698742568368278,0,1,1,8.698742568368278,0" fill="#4c78a8" stroke-width="2"></path><path aria-label="IMDB Rating (binned): 3 – 4; Rotten Tomatoes Rating (binned): 0 – 10; Count of Records: 56" role="graphics-symbol" aria-roledescription="circle" transform="translate(70,190)" d="M4.697857915649768,0A4.697857915649768,4.697857915649768,0,1,1,-4.697857915649768,0A4.697857915649768,4.697857915649768,0,1,1,4.697857915649768,0" fill="#4c78a8" stroke-width="2"></path><path aria-label="IMDB Rating (binned): 5 – 6; Rotten Tomatoes Rating (binned): 20 – 30; Count of Records: 101" role="graphics-symbol" aria-roledescription="circle" transform="translate(110.00000000000001,150)" d="M6.309087505561991,0A6.309087505561991,6.309087505561991,0,1,1,-6.309087505561991,0A6.309087505561991,6.309087505561991,0,1,1,6.309087505561991,0" fill="#4c78a8" stroke-width="2"></path><path aria-label="IMDB Rating (binned): 7 – 8; Rotten Tomatoes Rating (binned): 80 – 90; Count of Records: 167" role="graphics-symbol" aria-roledescription="circle" transform="translate(150,30.000000000000004)" d="M8.112675402319885,0A8.112675402319885,8.112675402319885,0,1,1,-8.112675402319885,0A8.112675402319885,8.112675402319885,0,1,1,8.112675402319885,0" fill="#4c78a8" stroke-width="2"></path><path aria-label="IMDB Rating (binned): 8 – 9; Rotten Tomatoes Rating (binned): 90 – 100; Count of Records: 107" role="graphics-symbol" aria-roledescription="circle" transform="translate(170,10.000000000000009)" d="M6.49378271686073,0A6.49378271686073,6.49378271686073,0,1,1,-6.49378271686073,0A6.49378271686073,6.49378271686073,0,1,1,6.49378271686073,0" fill="#4c78a8" stroke-width="2"></path><path aria-label="IMDB Rating (binned): 6 – 7; Rotten Tomatoes Rating (binned): 80 – 90; Count of Records: 78" role="graphics-symbol" aria-roledescription="circle" transform="translate(130,30.000000000000004)" d="M5.544382262478759,0A5.544382262478759,5.544382262478759,0,1,1,-5.544382262478759,0A5.544382262478759,5.544382262478759,0,1,1,5.544382262478759,0" fill="#4c78a8" stroke-width="2"></path><path aria-label="IMDB Rating (binned): 2 – 3; Rotten Tomatoes Rating (binned): 90 – 100; Count of Records: 3" role="graphics-symbol" aria-roledescription="circle" transform="translate(50,10.000000000000009)" d="M1.0873428210460347,0A1.0873428210460347,1.0873428210460347,0,1,1,-1.0873428210460347,0A1.0873428210460347,1.0873428210460347,0,1,1,1.0873428210460347,0" fill="#4c78a8" stroke-width="2"></path><path aria-label="IMDB Rating (binned): 8 – 9; Rotten Tomatoes Rating (binned): 0 – 10; Count of Records: 41" role="graphics-symbol" aria-roledescription="circle" transform="translate(170,190)" d="M4.019738417264417,0A4.019738417264417,4.019738417264417,0,1,1,-4.019738417264417,0A4.019738417264417,4.019738417264417,0,1,1,4.019738417264417,0" fill="#4c78a8" stroke-width="2"></path><path aria-label="IMDB Rating (binned): 7 – 8; Rotten Tomatoes Rating (binned): 50 – 60; Count of Records: 29" role="graphics-symbol" aria-roledescription="circle" transform="translate(150,89.99999999999999)" d="M3.380686217517095,0A3.380686217517095,3.380686217517095,0,1,1,-3.380686217517095,0A3.380686217517095,3.380686217517095,0,1,1,3.380686217517095,0" fill="#4c78a8" stroke-width="2"></path><path aria-label="IMDB Rating (binned): 5 – 6; Rotten Tomatoes Rating (binned): 30 – 40; Count of Records: 100" role="graphics-symbol" aria-roledescription="circle" transform="translate(110.00000000000001,130)" d="M6.277776704323353,0A6.277776704323353,6.277776704323353,0,1,1,-6.277776704323353,0A6.277776704323353,6.277776704323353,0,1,1,6.277776704323353,0" fill="#4c78a8" stroke-width="2"></path><path aria-label="IMDB Rating (binned): 0 – 1; Rotten Tomatoes Rating (binned): 90 – 100; Count of Records: 8" role="graphics-symbol" aria-roledescription="circle" transform="translate(10,10.000000000000009)" d="M1.7756233913607915,0A1.7756233913607915,1.7756233913607915,0,1,1,-1.7756233913607915,0A1.7756233913607915,1.7756233913607915,0,1,1,1.7756233913607915,0" fill="#4c78a8" stroke-width="2"></path><path aria-label="IMDB Rating (binned): 7 – 8; Rotten Tomatoes Rating (binned): 70 – 80; Count of Records: 99" role="graphics-symbol" aria-roledescription="circle" transform="translate(150,50)" d="M6.246308953762337,0A6.246308953762337,6.246308953762337,0,1,1,-6.246308953762337,0A6.246308953762337,6.246308953762337,0,1,1,6.246308953762337,0" fill="#4c78a8" stroke-width="2"></path><path aria-label="IMDB Rating (binned): 5 – 6; Rotten Tomatoes Rating (binned): 0 – 10; Count of Records: 173" role="graphics-symbol" aria-roledescription="circle" transform="translate(110.00000000000001,190)" d="M8.257126074147518,0A8.257126074147518,8.257126074147518,0,1,1,-8.257126074147518,0A8.257126074147518,8.257126074147518,0,1,1,8.257126074147518,0" fill="#4c78a8" stroke-width="2"></path><path aria-label="IMDB Rating (binned): 3 – 4; Rotten Tomatoes Rating (binned): 10 – 20; Count of Records: 23" role="graphics-symbol" aria-roledescription="circle" transform="translate(70,170)" d="M3.010715941491217,0A3.010715941491217,3.010715941491217,0,1,1,-3.010715941491217,0A3.010715941491217,3.010715941491217,0,1,1,3.010715941491217,0" fill="#4c78a8" stroke-width="2"></path><path aria-label="IMDB Rating (binned): 7 – 8; Rotten Tomatoes Rating (binned): 90 – 100; Count of Records: 131" role="graphics-symbol" aria-roledescription="circle" transform="translate(150,10.000000000000009)" d="M7.185243855127112,0A7.185243855127112,7.185243855127112,0,1,1,-7.185243855127112,0A7.185243855127112,7.185243855127112,0,1,1,7.185243855127112,0" fill="#4c78a8" stroke-width="2"></path><path aria-label="IMDB Rating (binned): 6 – 7; Rotten Tomatoes Rating (binned): 10 – 20; Count of Records: 29" role="graphics-symbol" aria-roledescription="circle" transform="translate(130,170)" d="M3.380686217517095,0A3.380686217517095,3.380686217517095,0,1,1,-3.380686217517095,0A3.380686217517095,3.380686217517095,0,1,1,3.380686217517095,0" fill="#4c78a8" stroke-width="2"></path><path aria-label="IMDB Rating (binned): 6 – 7; Rotten Tomatoes Rating (binned): 50 – 60; Count of Records: 131" role="graphics-symbol" aria-roledescription="circle" transform="translate(130,89.99999999999999)" d="M7.185243855127112,0A7.185243855127112,7.185243855127112,0,1,1,-7.185243855127112,0A7.185243855127112,7.185243855127112,0,1,1,7.185243855127112,0" fill="#4c78a8" stroke-width="2"></path><path aria-label="IMDB Rating (binned): 4 – 5; Rotten Tomatoes Rating (binned): 0 – 10; Count of Records: 115" role="graphics-symbol" aria-roledescription="circle" transform="translate(90,190)" d="M6.73216550611664,0A6.73216550611664,6.73216550611664,0,1,1,-6.73216550611664,0A6.73216550611664,6.73216550611664,0,1,1,6.73216550611664,0" fill="#4c78a8" stroke-width="2"></path><path aria-label="IMDB Rating (binned): 4 – 5; Rotten Tomatoes Rating (binned): 10 – 20; Count of Records: 76" role="graphics-symbol" aria-roledescription="circle" transform="translate(90,170)" d="M5.472838848851863,0A5.472838848851863,5.472838848851863,0,1,1,-5.472838848851863,0A5.472838848851863,5.472838848851863,0,1,1,5.472838848851863,0" fill="#4c78a8" stroke-width="2"></path><path aria-label="IMDB Rating (binned): 6 – 7; Rotten Tomatoes Rating (binned): 40 – 50; Count of Records: 126" role="graphics-symbol" aria-roledescription="circle" transform="translate(130,110.00000000000001)" d="M7.046786873474653,0A7.046786873474653,7.046786873474653,0,1,1,-7.046786873474653,0A7.046786873474653,7.046786873474653,0,1,1,7.046786873474653,0" fill="#4c78a8" stroke-width="2"></path><path aria-label="IMDB Rating (binned): 0 – 1; Rotten Tomatoes Rating (binned): 30 – 40; Count of Records: 7" role="graphics-symbol" aria-roledescription="circle" transform="translate(10,130)" d="M1.6609435946034254,0A1.6609435946034254,1.6609435946034254,0,1,1,-1.6609435946034254,0A1.6609435946034254,1.6609435946034254,0,1,1,1.6609435946034254,0" fill="#4c78a8" stroke-width="2"></path><path aria-label="IMDB Rating (binned): 6 – 7; Rotten Tomatoes Rating (binned): 20 – 30; Count of Records: 60" role="graphics-symbol" aria-roledescription="circle" transform="translate(130,150)" d="M4.862744925410646,0A4.862744925410646,4.862744925410646,0,1,1,-4.862744925410646,0A4.862744925410646,4.862744925410646,0,1,1,4.862744925410646,0" fill="#4c78a8" stroke-width="2"></path><path aria-label="IMDB Rating (binned): 5 – 6; Rotten Tomatoes Rating (binned): 50 – 60; Count of Records: 44" role="graphics-symbol" aria-roledescription="circle" transform="translate(110.00000000000001,89.99999999999999)" d="M4.1642059691748905,0A4.1642059691748905,4.1642059691748905,0,1,1,-4.1642059691748905,0A4.1642059691748905,4.1642059691748905,0,1,1,4.1642059691748905,0" fill="#4c78a8" stroke-width="2"></path><path aria-label="IMDB Rating (binned): 3 – 4; Rotten Tomatoes Rating (binned): 70 – 80; Count of Records: 2" role="graphics-symbol" aria-roledescription="circle" transform="translate(70,50)" d="M0.8878116956803958,0A0.8878116956803958,0.8878116956803958,0,1,1,-0.8878116956803958,0A0.8878116956803958,0.8878116956803958,0,1,1,0.8878116956803958,0" fill="#4c78a8" stroke-width="2"></path><path aria-label="IMDB Rating (binned): 6 – 7; Rotten Tomatoes Rating (binned): 90 – 100; Count of Records: 24" role="graphics-symbol" aria-roledescription="circle" transform="translate(130,10.000000000000009)" d="M3.0754699289446474,0A3.0754699289446474,3.0754699289446474,0,1,1,-3.0754699289446474,0A3.0754699289446474,3.0754699289446474,0,1,1,3.0754699289446474,0" fill="#4c78a8" stroke-width="2"></path><path aria-label="IMDB Rating (binned): 5 – 6; Rotten Tomatoes Rating (binned): 60 – 70; Count of Records: 27" role="graphics-symbol" aria-roledescription="circle" transform="translate(110.00000000000001,70)" d="M3.2620284631381042,0A3.2620284631381042,3.2620284631381042,0,1,1,-3.2620284631381042,0A3.2620284631381042,3.2620284631381042,0,1,1,3.2620284631381042,0" fill="#4c78a8" stroke-width="2"></path><path aria-label="IMDB Rating (binned): 5 – 6; Rotten Tomatoes Rating (binned): 70 – 80; Count of Records: 8" role="graphics-symbol" aria-roledescription="circle" transform="translate(110.00000000000001,50)" d="M1.7756233913607915,0A1.7756233913607915,1.7756233913607915,0,1,1,-1.7756233913607915,0A1.7756233913607915,1.7756233913607915,0,1,1,1.7756233913607915,0" fill="#4c78a8" stroke-width="2"></path><path aria-label="IMDB Rating (binned): 6 – 7; Rotten Tomatoes Rating (binned): 60 – 70; Count of Records: 130" role="graphics-symbol" aria-roledescription="circle" transform="translate(130,70)" d="M7.157766722529344,0A7.157766722529344,7.157766722529344,0,1,1,-7.157766722529344,0A7.157766722529344,7.157766722529344,0,1,1,7.157766722529344,0" fill="#4c78a8" stroke-width="2"></path><path aria-label="IMDB Rating (binned): 7 – 8; Rotten Tomatoes Rating (binned): 60 – 70; Count of Records: 85" role="graphics-symbol" aria-roledescription="circle" transform="translate(150,70)" d="M5.787824141846677,0A5.787824141846677,5.787824141846677,0,1,1,-5.787824141846677,0A5.787824141846677,5.787824141846677,0,1,1,5.787824141846677,0" fill="#4c78a8" stroke-width="2"></path><path aria-label="IMDB Rating (binned): 6 – 7; Rotten Tomatoes Rating (binned): 30 – 40; Count of Records: 72" role="graphics-symbol" aria-roledescription="circle" transform="translate(130,130)" d="M5.326870174082375,0A5.326870174082375,5.326870174082375,0,1,1,-5.326870174082375,0A5.326870174082375,5.326870174082375,0,1,1,5.326870174082375,0" fill="#4c78a8" stroke-width="2"></path><path aria-label="IMDB Rating (binned): 5 – 6; Rotten Tomatoes Rating (binned): 80 – 90; Count of Records: 10" role="graphics-symbol" aria-roledescription="circle" transform="translate(110.00000000000001,30.000000000000004)" d="M1.985207302760721,0A1.985207302760721,1.985207302760721,0,1,1,-1.985207302760721,0A1.985207302760721,1.985207302760721,0,1,1,1.985207302760721,0" fill="#4c78a8" stroke-width="2"></path><path aria-label="IMDB Rating (binned): 3 – 4; Rotten Tomatoes Rating (binned): 90 – 100; Count of Records: 2" role="graphics-symbol" aria-roledescription="circle" transform="translate(70,10.000000000000009)" d="M0.8878116956803958,0A0.8878116956803958,0.8878116956803958,0,1,1,-0.8878116956803958,0A0.8878116956803958,0.8878116956803958,0,1,1,0.8878116956803958,0" fill="#4c78a8" stroke-width="2"></path><path aria-label="IMDB Rating (binned): 3 – 4; Rotten Tomatoes Rating (binned): 20 – 30; Count of Records: 11" role="graphics-symbol" aria-roledescription="circle" transform="translate(70,150)" d="M2.0821029845874452,0A2.0821029845874452,2.0821029845874452,0,1,1,-2.0821029845874452,0A2.0821029845874452,2.0821029845874452,0,1,1,2.0821029845874452,0" fill="#4c78a8" stroke-width="2"></path><path aria-label="IMDB Rating (binned): 4 – 5; Rotten Tomatoes Rating (binned): 40 – 50; Count of Records: 9" role="graphics-symbol" aria-roledescription="circle" transform="translate(90,110.00000000000001)" d="M1.883333011297006,0A1.883333011297006,1.883333011297006,0,1,1,-1.883333011297006,0A1.883333011297006,1.883333011297006,0,1,1,1.883333011297006,0" fill="#4c78a8" stroke-width="2"></path><path aria-label="IMDB Rating (binned): 5 – 6; Rotten Tomatoes Rating (binned): 10 – 20; Count of Records: 91" role="graphics-symbol" aria-roledescription="circle" transform="translate(110.00000000000001,170)" d="M5.988617295996124,0A5.988617295996124,5.988617295996124,0,1,1,-5.988617295996124,0A5.988617295996124,5.988617295996124,0,1,1,5.988617295996124,0" fill="#4c78a8" stroke-width="2"></path><path aria-label="IMDB Rating (binned): 5 – 6; Rotten Tomatoes Rating (binned): 40 – 50; Count of Records: 71" role="graphics-symbol" aria-roledescription="circle" transform="translate(110.00000000000001,110.00000000000001)" d="M5.289748675318605,0A5.289748675318605,5.289748675318605,0,1,1,-5.289748675318605,0A5.289748675318605,5.289748675318605,0,1,1,5.289748675318605,0" fill="#4c78a8" stroke-width="2"></path><path aria-label="IMDB Rating (binned): 4 – 5; Rotten Tomatoes Rating (binned): 50 – 60; Count of Records: 4" role="graphics-symbol" aria-roledescription="circle" transform="translate(90,89.99999999999999)" d="M1.2555553408646707,0A1.2555553408646707,1.2555553408646707,0,1,1,-1.2555553408646707,0A1.2555553408646707,1.2555553408646707,0,1,1,1.2555553408646707,0" fill="#4c78a8" stroke-width="2"></path><path aria-label="IMDB Rating (binned): 8 – 9; Rotten Tomatoes Rating (binned): 70 – 80; Count of Records: 14" role="graphics-symbol" aria-roledescription="circle" transform="translate(170,50)" d="M2.348928957824884,0A2.348928957824884,2.348928957824884,0,1,1,-2.348928957824884,0A2.348928957824884,2.348928957824884,0,1,1,2.348928957824884,0" fill="#4c78a8" stroke-width="2"></path><path aria-label="IMDB Rating (binned): 6 – 7; Rotten Tomatoes Rating (binned): 70 – 80; Count of Records: 106" role="graphics-symbol" aria-roledescription="circle" transform="translate(130,50)" d="M6.4633667055417545,0A6.4633667055417545,6.4633667055417545,0,1,1,-6.4633667055417545,0A6.4633667055417545,6.4633667055417545,0,1,1,6.4633667055417545,0" fill="#4c78a8" stroke-width="2"></path><path aria-label="IMDB Rating (binned): 8 – 9; Rotten Tomatoes Rating (binned): 30 – 40; Count of Records: 1" role="graphics-symbol" aria-roledescription="circle" transform="translate(170,130)" d="M0.6277776704323353,0A0.6277776704323353,0.6277776704323353,0,1,1,-0.6277776704323353,0A0.6277776704323353,0.6277776704323353,0,1,1,0.6277776704323353,0" fill="#4c78a8" stroke-width="2"></path><path aria-label="IMDB Rating (binned): 8 – 9; Rotten Tomatoes Rating (binned): 80 – 90; Count of Records: 36" role="graphics-symbol" aria-roledescription="circle" transform="translate(170,30.000000000000004)" d="M3.766666022594012,0A3.766666022594012,3.766666022594012,0,1,1,-3.766666022594012,0A3.766666022594012,3.766666022594012,0,1,1,3.766666022594012,0" fill="#4c78a8" stroke-width="2"></path><path aria-label="IMDB Rating (binned): 4 – 5; Rotten Tomatoes Rating (binned): 70 – 80; Count of Records: 2" role="graphics-symbol" aria-roledescription="circle" transform="translate(90,50)" d="M0.8878116956803958,0A0.8878116956803958,0.8878116956803958,0,1,1,-0.8878116956803958,0A0.8878116956803958,0.8878116956803958,0,1,1,0.8878116956803958,0" fill="#4c78a8" stroke-width="2"></path><path aria-label="IMDB Rating (binned): 5 – 6; Rotten Tomatoes Rating (binned): 90 – 100; Count of Records: 8" role="graphics-symbol" aria-roledescription="circle" transform="translate(110.00000000000001,10.000000000000009)" d="M1.7756233913607915,0A1.7756233913607915,1.7756233913607915,0,1,1,-1.7756233913607915,0A1.7756233913607915,1.7756233913607915,0,1,1,1.7756233913607915,0" fill="#4c78a8" stroke-width="2"></path><path aria-label="IMDB Rating (binned): 4 – 5; Rotten Tomatoes Rating (binned): 20 – 30; Count of Records: 40" role="graphics-symbol" aria-roledescription="circle" transform="translate(90,150)" d="M3.970414605521442,0A3.970414605521442,3.970414605521442,0,1,1,-3.970414605521442,0A3.970414605521442,3.970414605521442,0,1,1,3.970414605521442,0" fill="#4c78a8" stroke-width="2"></path><path aria-label="IMDB Rating (binned): 0 – 1; Rotten Tomatoes Rating (binned): 60 – 70; Count of Records: 4" role="graphics-symbol" aria-roledescription="circle" transform="translate(10,70)" d="M1.2555553408646707,0A1.2555553408646707,1.2555553408646707,0,1,1,-1.2555553408646707,0A1.2555553408646707,1.2555553408646707,0,1,1,1.2555553408646707,0" fill="#4c78a8" stroke-width="2"></path><path aria-label="IMDB Rating (binned): 9 – 10; Rotten Tomatoes Rating (binned): 0 – 10; Count of Records: 1" role="graphics-symbol" aria-roledescription="circle" transform="translate(190,190)" d="M0.6277776704323353,0A0.6277776704323353,0.6277776704323353,0,1,1,-0.6277776704323353,0A0.6277776704323353,0.6277776704323353,0,1,1,0.6277776704323353,0" fill="#4c78a8" stroke-width="2"></path><path aria-label="IMDB Rating (binned): 9 – 10; Rotten Tomatoes Rating (binned): 90 – 100; Count of Records: 1" role="graphics-symbol" aria-roledescription="circle" transform="translate(190,10.000000000000009)" d="M0.6277776704323353,0A0.6277776704323353,0.6277776704323353,0,1,1,-0.6277776704323353,0A0.6277776704323353,0.6277776704323353,0,1,1,0.6277776704323353,0" fill="#4c78a8" stroke-width="2"></path><path aria-label="IMDB Rating (binned): 4 – 5; Rotten Tomatoes Rating (binned): 30 – 40; Count of Records: 22" role="graphics-symbol" aria-roledescription="circle" transform="translate(90,130)" d="M2.9445382790610646,0A2.9445382790610646,2.9445382790610646,0,1,1,-2.9445382790610646,0A2.9445382790610646,2.9445382790610646,0,1,1,2.9445382790610646,0" fill="#4c78a8" stroke-width="2"></path><path aria-label="IMDB Rating (binned): 1 – 2; Rotten Tomatoes Rating (binned): 0 – 10; Count of Records: 5" role="graphics-symbol" aria-roledescription="circle" transform="translate(30,190)" d="M1.4037535458431614,0A1.4037535458431614,1.4037535458431614,0,1,1,-1.4037535458431614,0A1.4037535458431614,1.4037535458431614,0,1,1,1.4037535458431614,0" fill="#4c78a8" stroke-width="2"></path><path aria-label="IMDB Rating (binned): 7 – 8; Rotten Tomatoes Rating (binned): 40 – 50; Count of Records: 16" role="graphics-symbol" aria-roledescription="circle" transform="translate(150,110.00000000000001)" d="M2.5111106817293414,0A2.5111106817293414,2.5111106817293414,0,1,1,-2.5111106817293414,0A2.5111106817293414,2.5111106817293414,0,1,1,2.5111106817293414,0" fill="#4c78a8" stroke-width="2"></path><path aria-label="IMDB Rating (binned): 2 – 3; Rotten Tomatoes Rating (binned): 0 – 10; Count of Records: 26" role="graphics-symbol" aria-roledescription="circle" transform="translate(50,190)" d="M3.201050591732298,0A3.201050591732298,3.201050591732298,0,1,1,-3.201050591732298,0A3.201050591732298,3.201050591732298,0,1,1,3.201050591732298,0" fill="#4c78a8" stroke-width="2"></path><path aria-label="IMDB Rating (binned): 0 – 1; Rotten Tomatoes Rating (binned): 80 – 90; Count of Records: 11" role="graphics-symbol" aria-roledescription="circle" transform="translate(10,30.000000000000004)" d="M2.0821029845874452,0A2.0821029845874452,2.0821029845874452,0,1,1,-2.0821029845874452,0A2.0821029845874452,2.0821029845874452,0,1,1,2.0821029845874452,0" fill="#4c78a8" stroke-width="2"></path><path aria-label="IMDB Rating (binned): 2 – 3; Rotten Tomatoes Rating (binned): 10 – 20; Count of Records: 8" role="graphics-symbol" aria-roledescription="circle" transform="translate(50,170)" d="M1.7756233913607915,0A1.7756233913607915,1.7756233913607915,0,1,1,-1.7756233913607915,0A1.7756233913607915,1.7756233913607915,0,1,1,1.7756233913607915,0" fill="#4c78a8" stroke-width="2"></path><path aria-label="IMDB Rating (binned): 9 – 10; Rotten Tomatoes Rating (binned): 80 – 90; Count of Records: 2" role="graphics-symbol" aria-roledescription="circle" transform="translate(190,30.000000000000004)" d="M0.8878116956803958,0A0.8878116956803958,0.8878116956803958,0,1,1,-0.8878116956803958,0A0.8878116956803958,0.8878116956803958,0,1,1,0.8878116956803958,0" fill="#4c78a8" stroke-width="2"></path><path aria-label="IMDB Rating (binned): 4 – 5; Rotten Tomatoes Rating (binned): 90 – 100; Count of Records: 2" role="graphics-symbol" aria-roledescription="circle" transform="translate(90,10.000000000000009)" d="M0.8878116956803958,0A0.8878116956803958,0.8878116956803958,0,1,1,-0.8878116956803958,0A0.8878116956803958,0.8878116956803958,0,1,1,0.8878116956803958,0" fill="#4c78a8" stroke-width="2"></path><path aria-label="IMDB Rating (binned): 2 – 3; Rotten Tomatoes Rating (binned): 60 – 70; Count of Records: 3" role="graphics-symbol" aria-roledescription="circle" transform="translate(50,70)" d="M1.0873428210460347,0A1.0873428210460347,1.0873428210460347,0,1,1,-1.0873428210460347,0A1.0873428210460347,1.0873428210460347,0,1,1,1.0873428210460347,0" fill="#4c78a8" stroke-width="2"></path><path aria-label="IMDB Rating (binned): 7 – 8; Rotten Tomatoes Rating (binned): 20 – 30; Count of Records: 6" role="graphics-symbol" aria-roledescription="circle" transform="translate(150,150)" d="M1.5377349644723237,0A1.5377349644723237,1.5377349644723237,0,1,1,-1.5377349644723237,0A1.5377349644723237,1.5377349644723237,0,1,1,1.5377349644723237,0" fill="#4c78a8" stroke-width="2"></path><path aria-label="IMDB Rating (binned): 8 – 9; Rotten Tomatoes Rating (binned): 10 – 20; Count of Records: 1" role="graphics-symbol" aria-roledescription="circle" transform="translate(170,170)" d="M0.6277776704323353,0A0.6277776704323353,0.6277776704323353,0,1,1,-0.6277776704323353,0A0.6277776704323353,0.6277776704323353,0,1,1,0.6277776704323353,0" fill="#4c78a8" stroke-width="2"></path><path aria-label="IMDB Rating (binned): 4 – 5; Rotten Tomatoes Rating (binned): 60 – 70; Count of Records: 2" role="graphics-symbol" aria-roledescription="circle" transform="translate(90,70)" d="M0.8878116956803958,0A0.8878116956803958,0.8878116956803958,0,1,1,-0.8878116956803958,0A0.8878116956803958,0.8878116956803958,0,1,1,0.8878116956803958,0" fill="#4c78a8" stroke-width="2"></path><path aria-label="IMDB Rating (binned): 7 – 8; Rotten Tomatoes Rating (binned): 30 – 40; Count of Records: 14" role="graphics-symbol" aria-roledescription="circle" transform="translate(150,130)" d="M2.348928957824884,0A2.348928957824884,2.348928957824884,0,1,1,-2.348928957824884,0A2.348928957824884,2.348928957824884,0,1,1,2.348928957824884,0" fill="#4c78a8" stroke-width="2"></path><path aria-label="IMDB Rating (binned): 8 – 9; Rotten Tomatoes Rating (binned): 60 – 70; Count of Records: 2" role="graphics-symbol" aria-roledescription="circle" transform="translate(170,70)" d="M0.8878116956803958,0A0.8878116956803958,0.8878116956803958,0,1,1,-0.8878116956803958,0A0.8878116956803958,0.8878116956803958,0,1,1,0.8878116956803958,0" fill="#4c78a8" stroke-width="2"></path><path aria-label="IMDB Rating (binned): 7 – 8; Rotten Tomatoes Rating (binned): 10 – 20; Count of Records: 2" role="graphics-symbol" aria-roledescription="circle" transform="translate(150,170)" d="M0.8878116956803958,0A0.8878116956803958,0.8878116956803958,0,1,1,-0.8878116956803958,0A0.8878116956803958,0.8878116956803958,0,1,1,0.8878116956803958,0" fill="#4c78a8" stroke-width="2"></path><path aria-label="IMDB Rating (binned): 0 – 1; Rotten Tomatoes Rating (binned): 70 – 80; Count of Records: 8" role="graphics-symbol" aria-roledescription="circle" transform="translate(10,50)" d="M1.7756233913607915,0A1.7756233913607915,1.7756233913607915,0,1,1,-1.7756233913607915,0A1.7756233913607915,1.7756233913607915,0,1,1,1.7756233913607915,0" fill="#4c78a8" stroke-width="2"></path><path aria-label="IMDB Rating (binned): 0 – 1; Rotten Tomatoes Rating (binned): 20 – 30; Count of Records: 7" role="graphics-symbol" aria-roledescription="circle" transform="translate(10,150)" d="M1.6609435946034254,0A1.6609435946034254,1.6609435946034254,0,1,1,-1.6609435946034254,0A1.6609435946034254,1.6609435946034254,0,1,1,1.6609435946034254,0" fill="#4c78a8" stroke-width="2"></path><path aria-label="IMDB Rating (binned): 0 – 1; Rotten Tomatoes Rating (binned): 50 – 60; Count of Records: 5" role="graphics-symbol" aria-roledescription="circle" transform="translate(10,89.99999999999999)" d="M1.4037535458431614,0A1.4037535458431614,1.4037535458431614,0,1,1,-1.4037535458431614,0A1.4037535458431614,1.4037535458431614,0,1,1,1.4037535458431614,0" fill="#4c78a8" stroke-width="2"></path><path aria-label="IMDB Rating (binned): 4 – 5; Rotten Tomatoes Rating (binned): 80 – 90; Count of Records: 1" role="graphics-symbol" aria-roledescription="circle" transform="translate(90,30.000000000000004)" d="M0.6277776704323353,0A0.6277776704323353,0.6277776704323353,0,1,1,-0.6277776704323353,0A0.6277776704323353,0.6277776704323353,0,1,1,0.6277776704323353,0" fill="#4c78a8" stroke-width="2"></path><path aria-label="IMDB Rating (binned): 8 – 9; Rotten Tomatoes Rating (binned): 40 – 50; Count of Records: 1" role="graphics-symbol" aria-roledescription="circle" transform="translate(170,110.00000000000001)" d="M0.6277776704323353,0A0.6277776704323353,0.6277776704323353,0,1,1,-0.6277776704323353,0A0.6277776704323353,0.6277776704323353,0,1,1,0.6277776704323353,0" fill="#4c78a8" stroke-width="2"></path><path aria-label="IMDB Rating (binned): 0 – 1; Rotten Tomatoes Rating (binned): 40 – 50; Count of Records: 3" role="graphics-symbol" aria-roledescription="circle" transform="translate(10,110.00000000000001)" d="M1.0873428210460347,0A1.0873428210460347,1.0873428210460347,0,1,1,-1.0873428210460347,0A1.0873428210460347,1.0873428210460347,0,1,1,1.0873428210460347,0" fill="#4c78a8" stroke-width="2"></path><path aria-label="IMDB Rating (binned): 3 – 4; Rotten Tomatoes Rating (binned): 30 – 40; Count of Records: 1" role="graphics-symbol" aria-roledescription="circle" transform="translate(70,130)" d="M0.6277776704323353,0A0.6277776704323353,0.6277776704323353,0,1,1,-0.6277776704323353,0A0.6277776704323353,0.6277776704323353,0,1,1,0.6277776704323353,0" fill="#4c78a8" stroke-width="2"></path><path aria-label="IMDB Rating (binned): 8 – 9; Rotten Tomatoes Rating (binned): 50 – 60; Count of Records: 1" role="graphics-symbol" aria-roledescription="circle" transform="translate(170,89.99999999999999)" d="M0.6277776704323353,0A0.6277776704323353,0.6277776704323353,0,1,1,-0.6277776704323353,0A0.6277776704323353,0.6277776704323353,0,1,1,0.6277776704323353,0" fill="#4c78a8" stroke-width="2"></path><path aria-label="IMDB Rating (binned): 2 – 3; Rotten Tomatoes Rating (binned): 20 – 30; Count of Records: 1" role="graphics-symbol" aria-roledescription="circle" transform="translate(50,150)" d="M0.6277776704323353,0A0.6277776704323353,0.6277776704323353,0,1,1,-0.6277776704323353,0A0.6277776704323353,0.6277776704323353,0,1,1,0.6277776704323353,0" fill="#4c78a8" stroke-width="2"></path><path aria-label="IMDB Rating (binned): 2 – 3; Rotten Tomatoes Rating (binned): 30 – 40; Count of Records: 1" role="graphics-symbol" aria-roledescription="circle" transform="translate(50,130)" d="M0.6277776704323353,0A0.6277776704323353,0.6277776704323353,0,1,1,-0.6277776704323353,0A0.6277776704323353,0.6277776704323353,0,1,1,0.6277776704323353,0" fill="#4c78a8" stroke-width="2"></path><path aria-label="IMDB Rating (binned): 2 – 3; Rotten Tomatoes Rating (binned): 80 – 90; Count of Records: 1" role="graphics-symbol" aria-roledescription="circle" transform="translate(50,30.000000000000004)" d="M0.6277776704323353,0A0.6277776704323353,0.6277776704323353,0,1,1,-0.6277776704323353,0A0.6277776704323353,0.6277776704323353,0,1,1,0.6277776704323353,0" fill="#4c78a8" stroke-width="2"></path></g><g class="mark-group role-legend" role="graphics-symbol" aria-roledescription="legend" aria-label="Symbol legend titled 'Count of Records' for size with values from 0 to 229"><g transform="translate(218,0)"><path class="background" aria-hidden="true" d="M0,0h108v92h-108Z" pointer-events="none"></path><g><g class="mark-group role-legend-entry"><g transform="translate(0,16)"><path class="background" aria-hidden="true" d="M0,0h0v0h0Z" pointer-events="none"></path><g><g class="mark-group role-scope" role="graphics-object" aria-roledescription="group mark container"><g transform="translate(0,0)"><path class="background" aria-hidden="true" d="M0,0h42v11.439058478401979h-42Z" pointer-events="none" opacity="1"></path><g><g class="mark-symbol role-legend-symbol" pointer-events="none"><path transform="translate(10,5.5)" d="M4.439058478401979,0A4.439058478401979,4.439058478401979,0,1,1,-4.439058478401979,0A4.439058478401979,4.439058478401979,0,1,1,4.439058478401979,0" fill="#4c78a8" stroke-width="1.5" opacity="1"></path></g><g class="mark-text role-legend-label" pointer-events="none"><text text-anchor="start" transform="translate(24,8.5)" font-family="sans-serif" font-size="10px" fill="#000" opacity="1">50</text></g></g><path class="foreground" aria-hidden="true" d="" pointer-events="none" display="none"></path></g><g transform="translate(0,15)"><path class="background" aria-hidden="true" d="M0,0h42v15.277776704323351h-42Z" pointer-events="none" opacity="1"></path><g><g class="mark-symbol role-legend-symbol" pointer-events="none"><path transform="translate(10,7.5)" d="M6.277776704323353,0A6.277776704323353,6.277776704323353,0,1,1,-6.277776704323353,0A6.277776704323353,6.277776704323353,0,1,1,6.277776704323353,0" fill="#4c78a8" stroke-width="1.5" opacity="1"></path></g><g class="mark-text role-legend-label" pointer-events="none"><text text-anchor="start" transform="translate(24,10.5)" font-family="sans-serif" font-size="10px" fill="#000" opacity="1">100</text></g></g><path class="foreground" aria-hidden="true" d="" pointer-events="none" display="none"></path></g><g transform="translate(0,34)"><path class="background" aria-hidden="true" d="M0,0h42v17.68867482236162h-42Z" pointer-events="none" opacity="1"></path><g><g class="mark-symbol role-legend-symbol" pointer-events="none"><path transform="translate(10,8.5)" d="M7.688674822361619,0A7.688674822361619,7.688674822361619,0,1,1,-7.688674822361619,0A7.688674822361619,7.688674822361619,0,1,1,7.688674822361619,0" fill="#4c78a8" stroke-width="1.5" opacity="1"></path></g><g class="mark-text role-legend-label" pointer-events="none"><text text-anchor="start" transform="translate(24,11.5)" font-family="sans-serif" font-size="10px" fill="#000" opacity="1">150</text></g></g><path class="foreground" aria-hidden="true" d="" pointer-events="none" display="none"></path></g><g transform="translate(0,55)"><path class="background" aria-hidden="true" d="M0,0h42v20.37811695680395h-42Z" pointer-events="none" opacity="1"></path><g><g class="mark-symbol role-legend-symbol" pointer-events="none"><path transform="translate(10,10)" d="M8.878116956803957,0A8.878116956803957,8.878116956803957,0,1,1,-8.878116956803957,0A8.878116956803957,8.878116956803957,0,1,1,8.878116956803957,0" fill="#4c78a8" stroke-width="1.5" opacity="1"></path></g><g class="mark-text role-legend-label" pointer-events="none"><text text-anchor="start" transform="translate(24,13)" font-family="sans-serif" font-size="10px" fill="#000" opacity="1">200</text></g></g><path class="foreground" aria-hidden="true" d="" pointer-events="none" display="none"></path></g></g></g><path class="foreground" aria-hidden="true" d="" pointer-events="none" display="none"></path></g></g><g class="mark-text role-legend-title" pointer-events="none"><text text-anchor="start" transform="translate(0,9)" font-family="sans-serif" font-size="11px" font-weight="bold" fill="#000" opacity="1">Count of Records</text></g></g><path class="foreground" aria-hidden="true" d="" pointer-events="none" display="none"></path></g></g></g><path class="foreground" aria-hidden="true" d="" display="none"></path></g></g></g></svg>