<svg class="marks" width="391" height="463" viewBox="0 0 391 463" version="1.1" xmlns="http://www.w3.org/2000/svg" xmlns:xlink="http://www.w3.org/1999/xlink"><rect width="391" height="463" fill="white"></rect><g fill="none" stroke-miterlimit="10" transform="translate(45,10)"><g class="mark-group role-frame root" role="graphics-object" aria-roledescription="group mark container"><g transform="translate(0,0)"><path class="background" aria-hidden="true" d="M0.5,0.5h200v200h-200Z" stroke="#ddd"></path><g><g class="mark-group role-axis" role="graphics-symbol" aria-roledescription="axis" aria-label="X-axis titled 'IMDB Rating (binned)' for a linear scale with values from 0 to 10"><g transform="translate(0.5,200.5)"><path class="background" aria-hidden="true" d="M0,0h0v0h0Z" pointer-events="none"></path><g><g class="mark-rule role-axis-tick" pointer-events="none"><line transform="translate(0,0)" x2="0" y2="5" stroke="#888" stroke-width="1" opacity="1"></line><line transform="translate(100,0)" x2="0" y2="5" stroke="#888" stroke-width="1" opacity="1"></line><line transform="translate(200,0)" x2="0" y2="5" stroke="#888" stroke-width="1" opacity="1"></line></g><g class="mark-text role-axis-label" pointer-events="none"><text text-anchor="start" transform="translate(0,15)" font-family="sans-serif" font-size="10px" fill="#000" opacity="1">0.0</text><text text-anchor="middle" transform="translate(100,15)" font-family="sans-serif" font-size="10px" fill="#000" opacity="1">5.0</text><text text-anchor="end" transform="translate(200,15)" font-family="sans-serif" font-size="10px" fill="#000" opacity="1">10.0</text></g><g class="mark-rule role-axis-domain" pointer-events="none"><line transform="translate(0,0)" x2="200" y2="0" stroke="#888" stroke-width="1" opacity="1"></line></g><g class="mark-text role-axis-title" pointer-events="none"><text text-anchor="middle" transform="translate(100,30)" font-family="sans-serif" font-size="11px" font-weight="bold" fill="#000" opacity="1">IMDB Rating (binned)</text></g></g><path class="foreground" aria-hidden="true" d="" pointer-events="none" display="none"></path></g></g><g class="mark-group role-axis" role="graphics-symbol" aria-roledescription="axis" aria-label="Y-axis titled 'Rotten Tomatoes Rating (binned)' for a linear scale with values from 0 to 100"><g transform="translate(0.5,0.5)"><path class="background" aria-hidden="true" d="M0,0h0v0h0Z" pointer-events="none"></path><g><g class="mark-rule role-axis-tick" pointer-events="none"><line transform="translate(0,200)" x2="-5" y2="0" stroke="#888" stroke-width="1" opacity="1"></line><line transform="translate(0,100)" x2="-5" y2="0" stroke="#888" stroke-width="1" opacity="1"></line><line transform="translate(0,0)" x2="-5" y2="0" stroke="#888" stroke-width="1" opacity="1"></line></g><g class="mark-text role-axis-label" pointer-events="none"><text text-anchor="end" transform="translate(-7,203)" font-family="sans-serif" font-size="10px" fill="#000" opacity="1">0</text><text text-anchor="end" transform="translate(-7,103)" font-family="sans-serif" font-size="10px" fill="#000" opacity="1">50</text><text text-anchor="end" transform="translate(-7,3)" font-family="sans-serif" font-size="10px" fill="#000" opacity="1">100</text></g><g class="mark-rule role-axis-domain" pointer-events="none"><line transform="translate(0,200)" x2="0" y2="-200" stroke="#888" stroke-width="1" opacity="1"></line></g><g class="mark-text role-axis-title" pointer-events="none"><text text-anchor="middle" transform="translate(-29,100) rotate(-90) translate(0,-2)" font-family="sans-serif" font-size="11px" font-weight="bold" fill="#000" opacity="1">Rotten Tomatoes Rating (binned)</text></g></g><path class="foreground" aria-hidden="true" d="" pointer-events="none" display="none"></path></g></g><g class="mark-symbol role-mark marks" role="graphics-object" aria-roledescription="symbol mark container"><path aria-label="IMDB Rating (binned): 5 – 10; Rotten Tomatoes Rating (binned): 0 – 50; Count of Records: 1327" role="graphics-symbol" aria-roledescription="circle" transform="translate(150,150)" d="M47.5,0A47.5,47.5,0,1,1,-47.5,0A47.5,47.5,0,1,1,47.5,0" fill="#4c78a8" stroke-width="2"></path><path aria-label="IMDB Rating (binned): 0 – 5; Rotten Tomatoes Rating (binned): 0 – 50; Count of Records: 571" role="graphics-symbol" aria-roledescription="circle" transform="translate(50,150)" d="M31.158475618418855,0A31.158475618418855,31.158475618418855,0,1,1,-31.158475618418855,0A31.158475618418855,31.158475618418855,0,1,1,31.158475618418855,0" fill="#4c78a8" stroke-width="2"></path><path aria-label="IMDB Rating (binned): 0 – 5; Rotten Tomatoes Rating (binned): 50 – 100; Count of Records: 63" role="graphics-symbol" aria-roledescription="circle" transform="translate(50,50)" d="M10.34971576556734,0A10.34971576556734,10.34971576556734,0,1,1,-10.34971576556734,0A10.34971576556734,10.34971576556734,0,1,1,10.34971576556734,0" fill="#4c78a8" stroke-width="2"></path><path aria-label="IMDB Rating (binned): 5 – 10; Rotten Tomatoes Rating (binned): 50 – 100; Count of Records: 1240" role="graphics-symbol" aria-roledescription="circle" transform="translate(150,50)" d="M45.91652266346119,0A45.91652266346119,45.91652266346119,0,1,1,-45.91652266346119,0A45.91652266346119,45.91652266346119,0,1,1,45.91652266346119,0" fill="#4c78a8" stroke-width="2"></path></g><g class="mark-group role-legend" role="graphics-symbol" aria-roledescription="legend" aria-label="Symbol legend titled 'Count of Records' for size with values from 0 to 1,327"><g transform="translate(218,0)"><path class="background" aria-hidden="true" d="M0,0h123v448h-123Z" pointer-events="none"></path><g><g class="mark-group role-legend-entry"><g transform="translate(0,16)"><path class="background" aria-hidden="true" d="M0,0h0v0h0Z" pointer-events="none"></path><g><g class="mark-group role-scope" role="graphics-object" aria-roledescription="group mark container"><g transform="translate(0,0)"><path class="background" aria-hidden="true" d="M0,0h123v39.44051925964084h-123Z" pointer-events="none" opacity="1"></path><g><g class="mark-symbol role-legend-symbol" pointer-events="none"><path transform="translate(46,19.5)" d="M18.440519259640837,0A18.440519259640837,18.440519259640837,0,1,1,-18.440519259640837,0A18.440519259640837,18.440519259640837,0,1,1,18.440519259640837,0" fill="#4c78a8" stroke-width="1.5" opacity="1"></path></g><g class="mark-text role-legend-label" pointer-events="none"><text text-anchor="start" transform="translate(96,22.5)" font-family="sans-serif" font-size="10px" fill="#000" opacity="1">200</text></g></g><path class="foreground" aria-hidden="true" d="" pointer-events="none" display="none"></path></g><g transform="translate(0,43)"><path class="background" aria-hidden="true" d="M0,0h123v54.57883243418634h-123Z" pointer-events="none" opacity="1"></path><g><g class="mark-symbol role-legend-symbol" pointer-events="none"><path transform="translate(46,27)" d="M26.07883243418634,0A26.07883243418634,26.07883243418634,0,1,1,-26.07883243418634,0A26.07883243418634,26.07883243418634,0,1,1,26.07883243418634,0" fill="#4c78a8" stroke-width="1.5" opacity="1"></path></g><g class="mark-text role-legend-label" pointer-events="none"><text text-anchor="start" transform="translate(96,30)" font-family="sans-serif" font-size="10px" fill="#000" opacity="1">400</text></g></g><path class="foreground" aria-hidden="true" d="" pointer-events="none" display="none"></path></g><g transform="translate(0,101)"><path class="background" aria-hidden="true" d="M0,0h123v66.43991627565035h-123Z" pointer-events="none" opacity="1"></path><g><g class="mark-symbol role-legend-symbol" pointer-events="none"><path transform="translate(46,33)" d="M31.939916275650347,0A31.939916275650347,31.939916275650347,0,1,1,-31.939916275650347,0A31.939916275650347,31.939916275650347,0,1,1,31.939916275650347,0" fill="#4c78a8" stroke-width="1.5" opacity="1"></path></g><g class="mark-text role-legend-label" pointer-events="none"><text text-anchor="start" transform="translate(96,36)" font-family="sans-serif" font-size="10px" fill="#000" opacity="1">600</text></g></g><path class="foreground" aria-hidden="true" d="" pointer-events="none" display="none"></path></g><g transform="translate(0,171)"><path class="background" aria-hidden="true" d="M0,0h123v76.38103851928167h-123Z" pointer-events="none" opacity="1"></path><g><g class="mark-symbol role-legend-symbol" pointer-events="none"><path transform="translate(46,38)" d="M36.881038519281674,0A36.881038519281674,36.881038519281674,0,1,1,-36.881038519281674,0A36.881038519281674,36.881038519281674,0,1,1,36.881038519281674,0" fill="#4c78a8" stroke-width="1.5" opacity="1"></path></g><g class="mark-text role-legend-label" pointer-events="none"><text text-anchor="start" transform="translate(96,41)" font-family="sans-serif" font-size="10px" fill="#000" opacity="1">800</text></g></g><path class="foreground" aria-hidden="true" d="" pointer-events="none" display="none"></path></g><g transform="translate(0,251)"><path class="background" aria-hidden="true" d="M0,0h123v84.73425460495099h-123Z" pointer-events="none" opacity="1"></path><g><g class="mark-symbol role-legend-symbol" pointer-events="none"><path transform="translate(46,42)" d="M41.234254604951005,0A41.234254604951005,41.234254604951005,0,1,1,-41.234254604951005,0A41.234254604951005,41.234254604951005,0,1,1,41.234254604951005,0" fill="#4c78a8" stroke-width="1.5" opacity="1"></path></g><g class="mark-text role-legend-label" pointer-events="none"><text text-anchor="start" transform="translate(96,45)" font-family="sans-serif" font-size="10px" fill="#000" opacity="1">1,000</text></g></g><path class="foreground" aria-hidden="true" d="" pointer-events="none" display="none"></path></g><g transform="translate(0,339)"><path class="background" aria-hidden="true" d="M0,0h123v92.66986277808587h-123Z" pointer-events="none" opacity="1"></path><g><g class="mark-symbol role-legend-symbol" pointer-events="none"><path transform="translate(46,46)" d="M45.16986277808587,0A45.16986277808587,45.16986277808587,0,1,1,-45.16986277808587,0A45.16986277808587,45.16986277808587,0,1,1,45.16986277808587,0" fill="#4c78a8" stroke-width="1.5" opacity="1"></path></g><g class="mark-text role-legend-label" pointer-events="none"><text text-anchor="start" transform="translate(96,49)" font-family="sans-serif" font-size="10px" fill="#000" opacity="1">1,200</text></g></g><path class="foreground" aria-hidden="true" d="" pointer-events="none" display="none"></path></g></g></g><path class="foreground" aria-hidden="true" d="" pointer-events="none" display="none"></path></g></g><g class="mark-text role-legend-title" pointer-events="none"><text text-anchor="start" transform="translate(0,9)" font-family="sans-serif" font-size="11px" font-weight="bold" fill="#000" opacity="1">Count of Records</text></g></g><path class="foreground" aria-hidden="true" d="" pointer-events="none" display="none"></path></g></g></g><path class="foreground" aria-hidden="true" d="" display="none"></path></g></g></g></svg>